<?xml version="1.0" encoding="UTF-8" standalone="no"?>
<!DOCTYPE svg PUBLIC "-//W3C//DTD SVG 20010904//EN"
              "http://www.w3.org/TR/2001/REC-SVG-20010904/DTD/svg10.dtd">

<svg xmlns="http://www.w3.org/2000/svg"
     width="8.08889in" height="7.4in"
     viewBox="0 0 728 666">
  <path id="Selection #1"
        fill="none" stroke="black" stroke-width="1"
        d="M 295.00,193.00
           C 260.81,192.95 235.26,211.16 208.00,229.33
             199.61,234.93 187.30,243.58 178.00,246.91
             172.45,248.90 166.40,250.02 161.00,246.91
             153.47,242.57 150.54,231.96 148.65,224.00
             143.47,202.06 143.74,186.16 144.00,164.00
             144.12,154.09 147.19,140.44 150.33,131.00
             166.00,84.02 205.01,53.42 255.00,54.00
             282.94,54.33 314.49,75.09 338.00,88.57
             381.37,113.44 434.82,133.97 483.00,109.00
             459.03,109.00 429.04,106.92 406.00,100.42
             398.78,98.38 386.04,95.36 381.00,90.00
             389.64,82.70 397.41,79.46 407.00,74.14
             419.82,67.03 438.64,58.21 453.00,55.46
             485.67,49.19 521.54,62.96 543.91,87.00
             551.14,94.77 559.12,106.39 563.68,116.00
             575.21,140.32 576.30,157.80 576.00,184.00
             575.81,199.76 570.24,228.15 566.65,244.00
             557.78,283.18 542.81,327.39 526.30,364.00
             513.78,391.78 500.86,417.72 483.66,443.00
             480.60,447.49 474.46,456.32 470.91,459.98
             469.21,461.74 466.14,465.06 463.39,463.83
             460.68,462.62 458.61,454.82 457.67,452.00
             457.67,452.00 447.58,417.00 447.58,417.00
             438.09,382.89 424.93,329.42 403.33,302.00
             388.17,282.76 364.83,270.86 341.00,282.12
             326.80,288.83 316.21,302.67 308.58,316.00
             293.71,341.98 282.45,383.70 274.00,413.00
             274.00,413.00 262.67,451.00 262.67,451.00
             261.81,453.57 259.30,462.71 257.30,463.95
             254.10,465.94 249.01,460.06 247.09,458.00
             240.86,451.33 229.89,435.14 225.00,427.00
             198.12,382.29 180.43,335.30 164.00,286.00
             164.00,286.00 186.00,293.57 186.00,293.57
             199.68,297.43 213.26,298.03 227.00,294.09
             268.61,282.17 292.90,233.78 325.00,207.46
             333.50,200.50 345.18,193.98 356.00,191.67
             356.00,191.67 366.00,190.00 366.00,190.00
             366.00,190.00 350.00,181.69 350.00,181.69
             327.40,169.47 303.86,158.15 280.00,148.60
             258.88,140.15 233.93,131.74 211.00,132.00
             184.67,132.31 171.58,149.99 171.01,175.00
             170.91,179.65 172.35,193.63 173.52,198.00
             174.30,200.94 175.85,204.38 179.04,205.30
             182.26,206.22 188.10,202.75 191.00,201.22
             200.48,196.22 207.63,191.79 218.00,188.33
             240.47,180.84 261.01,181.13 284.00,185.80
             290.50,187.12 304.64,190.71 310.00,194.00
             310.00,194.00 295.00,193.00 295.00,193.00 Z
           M 431.00,567.82
           C 414.51,558.06 413.69,527.59 427.09,515.21
             435.05,507.86 445.79,506.79 456.00,508.05
             458.96,508.42 465.32,509.61 466.89,512.42
             468.23,514.83 465.65,521.16 465.00,524.20
             456.44,521.70 447.05,517.59 439.10,524.20
             428.79,533.22 430.92,557.28 449.00,558.81
             454.66,559.29 460.44,556.86 466.00,556.00
             466.00,556.00 469.00,567.82 469.00,567.82
             456.13,571.39 443.54,574.93 431.00,567.82 Z
           M 78.00,518.00
           C 78.00,516.01 77.77,512.19 79.02,510.60
             80.88,508.24 93.72,507.99 97.00,508.00
             106.69,508.04 117.71,510.07 124.82,517.18
             134.92,527.30 134.65,551.71 124.82,561.90
             113.07,574.07 93.14,571.23 78.00,570.00
             78.00,570.00 78.00,518.00 78.00,518.00 Z
           M 558.00,564.00
           C 557.97,565.62 558.04,568.06 556.98,569.40
             555.18,571.68 545.82,571.68 544.02,569.40
             542.77,567.81 543.00,563.99 543.00,562.00
             543.00,562.00 543.00,517.00 543.00,517.00
             543.01,515.22 542.83,512.18 543.99,510.74
             546.08,508.15 557.59,507.99 561.00,508.00
             568.84,508.03 579.13,509.34 584.89,515.11
             593.17,523.38 592.32,539.78 579.00,545.00
             579.00,545.00 594.00,570.00 594.00,570.00
             590.16,571.09 580.82,572.13 577.61,569.40
             570.67,563.51 569.75,548.96 558.00,548.00
             558.00,548.00 558.00,564.00 558.00,564.00 Z
           M 185.00,509.00
           C 185.00,509.00 185.00,521.00 185.00,521.00
             185.00,521.00 158.00,521.00 158.00,521.00
             158.00,521.00 158.00,532.00 158.00,532.00
             158.00,532.00 182.00,532.00 182.00,532.00
             182.00,532.00 182.00,544.00 182.00,544.00
             182.00,544.00 158.00,544.00 158.00,544.00
             158.00,544.00 158.00,558.00 158.00,558.00
             158.00,558.00 187.00,558.00 187.00,558.00
             187.00,560.83 187.69,568.17 185.40,569.98
             184.06,571.04 181.62,570.97 180.00,571.00
             180.00,571.00 155.00,571.00 155.00,571.00
             152.59,571.00 146.40,571.40 144.60,569.98
             142.62,568.41 143.00,564.30 143.00,562.00
             143.00,562.00 143.00,509.00 143.00,509.00
             143.00,509.00 185.00,509.00 185.00,509.00 Z
           M 207.91,509.60
           C 207.91,509.60 217.39,519.00 217.39,519.00
             217.39,519.00 235.00,543.00 235.00,543.00
             235.00,543.00 235.00,509.00 235.00,509.00
             235.00,509.00 249.00,509.00 249.00,509.00
             249.00,509.00 249.00,571.00 249.00,571.00
             249.00,571.00 238.10,569.98 238.10,569.98
             238.10,569.98 228.81,557.00 228.81,557.00
             228.81,557.00 211.00,532.00 211.00,532.00
             211.00,532.00 211.00,563.00 211.00,563.00
             210.99,564.82 211.15,567.92 209.98,569.40
             208.18,571.68 198.82,571.68 197.02,569.40
             195.77,567.81 196.00,563.99 196.00,562.00
             196.00,562.00 196.00,509.00 196.00,509.00
             196.00,509.00 207.91,509.60 207.91,509.60 Z
           M 309.00,509.00
           C 309.00,509.00 309.00,521.00 309.00,521.00
             309.00,521.00 290.00,521.00 290.00,521.00
             290.00,521.00 290.00,571.00 290.00,571.00
             290.00,571.00 276.00,571.00 276.00,571.00
             276.00,571.00 276.00,521.00 276.00,521.00
             276.00,521.00 257.00,521.00 257.00,521.00
             257.00,521.00 257.00,509.00 257.00,509.00
             257.00,509.00 309.00,509.00 309.00,509.00 Z
           M 320.60,524.00
           C 320.60,524.00 327.65,509.99 327.65,509.99
             327.65,509.99 333.00,509.00 333.00,509.00
             333.00,509.00 342.00,509.00 342.00,509.00
             342.00,509.00 351.20,531.00 351.20,531.00
             351.20,531.00 366.00,570.00 366.00,570.00
             362.44,571.01 353.60,572.15 350.70,569.40
             347.93,566.78 347.92,560.24 344.58,558.02
             342.71,556.78 339.21,557.00 337.00,557.00
             333.99,556.99 326.63,556.55 324.27,558.02
             320.90,560.13 320.65,565.98 318.73,568.69
             316.09,572.39 306.83,571.09 303.00,570.00
             303.00,570.00 320.60,524.00 320.60,524.00 Z
           M 387.00,509.00
           C 387.00,509.00 387.00,558.00 387.00,558.00
             387.00,558.00 414.00,558.00 414.00,558.00
             414.00,558.00 414.00,571.00 414.00,571.00
             414.00,571.00 373.00,571.00 373.00,571.00
             373.00,571.00 373.00,509.00 373.00,509.00
             373.00,509.00 387.00,509.00 387.00,509.00 Z
           M 488.99,529.00
           C 490.40,525.59 495.09,513.49 496.97,511.31
             499.31,508.59 506.50,508.34 509.79,509.29
             513.95,510.49 517.07,520.17 518.72,524.00
             522.70,533.25 534.66,562.46 536.00,571.00
             532.93,571.00 523.72,571.53 521.51,569.98
             518.72,568.02 518.44,562.07 516.16,559.31
             513.45,556.04 505.99,556.99 502.00,557.00
             499.35,557.01 495.75,556.65 493.70,558.60
             490.93,561.22 490.92,567.76 487.58,569.98
             485.30,571.50 477.04,571.00 474.00,571.00
             475.45,561.60 484.99,538.71 488.99,529.00 Z
           M 644.00,509.00
           C 644.00,509.00 644.00,521.00 644.00,521.00
             644.00,521.00 616.00,521.00 616.00,521.00
             616.00,521.00 616.00,532.00 616.00,532.00
             616.00,532.00 634.00,532.00 634.00,532.00
             634.00,532.00 639.98,533.60 639.98,533.60
             639.98,533.60 641.00,544.00 641.00,544.00
             641.00,544.00 616.00,544.00 616.00,544.00
             616.00,544.00 616.00,558.00 616.00,558.00
             616.00,558.00 646.00,558.00 646.00,558.00
             646.00,558.00 644.98,569.40 644.98,569.40
             644.98,569.40 638.00,571.00 638.00,571.00
             638.00,571.00 602.00,571.00 602.00,571.00
             602.00,571.00 602.00,509.00 602.00,509.00
             602.00,509.00 644.00,509.00 644.00,509.00 Z
           M 119.00,616.22
           C 123.90,617.26 125.64,614.94 123.54,612.79
             121.83,611.04 116.96,610.09 115.02,606.79
             110.64,599.34 118.26,594.23 125.00,594.61
             127.38,594.74 129.71,595.40 132.00,596.00
             132.00,596.00 130.00,602.11 130.00,602.11
             128.48,601.53 123.24,599.53 122.62,602.11
             122.22,603.98 124.85,605.17 126.02,605.82
             129.44,607.72 132.08,608.64 132.76,613.02
             134.63,625.07 120.06,623.29 113.00,621.00
             113.00,621.00 115.00,615.00 115.00,615.00
             115.00,615.00 119.00,616.22 119.00,616.22 Z
           M 199.57,599.11
           C 206.65,607.70 201.41,621.89 190.00,622.78
             180.48,623.52 175.80,616.76 176.02,608.00
             176.09,605.09 176.35,602.61 178.01,600.10
             180.45,596.40 183.88,595.37 188.00,594.64
             192.62,594.64 196.45,595.31 199.57,599.11 Z
           M 236.40,621.07
           C 232.96,624.16 214.40,625.50 215.04,608.00
             215.27,601.88 217.86,597.16 224.00,595.34
             226.85,594.50 234.99,594.02 236.17,597.43
             236.91,598.89 236.31,600.56 236.17,601.98
             232.70,601.34 229.20,600.01 226.07,601.98
             220.71,605.31 219.50,615.66 231.00,617.00
             231.00,617.00 231.00,608.00 231.00,608.00
             231.00,608.00 238.00,608.00 238.00,608.00
             238.00,611.13 238.74,618.96 236.40,621.07 Z
           M 358.00,613.00
           C 358.00,615.07 358.23,618.74 356.98,620.44
             354.65,623.59 344.60,624.23 339.11,619.58
             334.57,615.75 333.73,609.47 335.31,604.00
             336.04,601.44 337.11,599.37 339.21,597.65
             341.24,595.99 344.40,594.87 347.00,594.63
             350.20,594.34 353.90,595.22 357.00,596.00
             357.00,596.00 356.00,602.09 356.00,602.09
             352.66,601.40 348.34,600.31 345.22,602.09
             340.65,604.92 339.07,615.62 351.00,617.00
             351.00,617.00 351.00,608.00 351.00,608.00
             351.00,608.00 358.00,608.00 358.00,608.00
             358.00,608.00 358.00,613.00 358.00,613.00 Z
           M 393.61,598.23
           C 399.29,604.28 399.42,621.66 385.00,622.78
             368.03,624.09 363.69,597.23 383.00,594.61
             387.09,594.65 390.63,595.06 393.61,598.23 Z
           M 452.09,613.36
           C 450.90,611.28 446.65,610.49 444.43,608.35
             440.91,604.97 440.86,597.78 448.00,595.28
             449.63,594.71 451.28,594.53 453.00,594.61
             455.37,594.73 457.72,595.40 460.00,596.00
             460.00,596.00 458.00,602.00 458.00,602.00
             458.00,602.00 449.00,601.00 449.00,601.00
             449.00,601.00 449.00,604.00 449.00,604.00
             451.38,604.64 453.80,605.34 455.98,606.53
             458.86,608.10 460.39,609.67 460.85,613.00
             462.52,625.11 445.50,624.07 443.03,620.44
             441.94,618.77 442.63,616.77 443.03,615.00
             444.29,615.42 455.10,618.64 452.09,613.36 Z
           M 153.00,595.00
           C 153.00,595.00 153.00,616.00 153.00,616.00
             162.02,616.00 164.41,614.95 165.00,622.00
             165.00,622.00 146.00,622.00 146.00,622.00
             146.00,622.00 146.00,595.00 146.00,595.00
             146.00,595.00 153.00,595.00 153.00,595.00 Z
           M 256.58,602.00
           C 257.86,599.06 259.14,595.29 263.00,595.29
             266.48,595.29 267.79,598.28 268.98,601.00
             268.98,601.00 277.00,622.00 277.00,622.00
             277.00,622.00 269.00,622.00 269.00,622.00
             265.03,611.28 256.14,620.82 254.74,621.41
             253.12,622.08 250.75,621.98 249.00,622.00
             249.00,622.00 256.58,602.00 256.58,602.00 Z
           M 288.00,604.00
           C 288.01,600.63 287.45,594.00 293.02,595.66
             295.88,596.51 298.35,599.72 300.10,602.00
             300.10,602.00 305.00,609.00 305.00,609.00
             305.00,609.00 305.00,595.00 305.00,595.00
             305.00,595.00 312.00,595.00 312.00,595.00
             312.00,595.00 312.00,622.00 312.00,622.00
             312.00,622.00 306.38,620.98 306.38,620.98
             306.38,620.98 295.00,606.00 295.00,606.00
             295.00,606.00 295.00,622.00 295.00,622.00
             295.00,622.00 288.00,622.00 288.00,622.00
             288.00,622.00 288.00,604.00 288.00,604.00 Z
           M 429.00,595.00
           C 429.00,595.00 429.00,601.00 429.00,601.00
             429.00,601.00 418.00,601.00 418.00,601.00
             418.00,601.00 418.00,605.00 418.00,605.00
             418.00,605.00 428.00,605.00 428.00,605.00
             428.00,605.00 428.00,611.00 428.00,611.00
             428.00,611.00 418.00,611.00 418.00,611.00
             418.00,611.00 418.00,616.00 418.00,616.00
             418.00,616.00 430.00,616.00 430.00,616.00
             430.00,616.00 430.00,622.00 430.00,622.00
             430.00,622.00 411.00,622.00 411.00,622.00
             411.00,622.00 411.00,595.00 411.00,595.00
             411.00,595.00 429.00,595.00 429.00,595.00 Z
           M 483.00,603.00
           C 483.00,603.00 484.02,596.60 484.02,596.60
             484.02,596.60 490.00,595.00 490.00,595.00
             490.00,595.00 490.00,605.00 490.00,605.00
             490.00,605.00 499.00,605.00 499.00,605.00
             499.00,605.00 499.00,595.00 499.00,595.00
             499.00,595.00 506.00,595.00 506.00,595.00
             506.00,595.00 506.00,622.00 506.00,622.00
             506.00,622.00 499.00,622.00 499.00,622.00
             499.00,622.00 499.00,611.00 499.00,611.00
             499.00,611.00 490.00,611.00 490.00,611.00
             490.00,611.00 490.00,622.00 490.00,622.00
             490.00,622.00 483.00,622.00 483.00,622.00
             483.00,622.00 483.00,603.00 483.00,603.00 Z
           M 539.00,595.00
           C 539.00,595.00 539.00,601.00 539.00,601.00
             539.00,601.00 527.00,601.00 527.00,601.00
             527.00,601.00 527.00,605.00 527.00,605.00
             527.00,605.00 538.00,605.00 538.00,605.00
             538.00,605.00 538.00,611.00 538.00,611.00
             538.00,611.00 527.00,611.00 527.00,611.00
             527.00,611.00 527.00,616.00 527.00,616.00
             527.00,616.00 540.00,616.00 540.00,616.00
             540.00,616.00 540.00,622.00 540.00,622.00
             540.00,622.00 521.00,622.00 521.00,622.00
             521.00,622.00 521.00,595.00 521.00,595.00
             521.00,595.00 539.00,595.00 539.00,595.00 Z
           M 568.97,596.31
           C 575.55,599.79 574.85,607.12 568.97,611.00
             568.97,611.00 575.00,622.00 575.00,622.00
             563.00,621.85 568.17,617.58 560.00,613.00
             560.00,613.00 560.00,622.00 560.00,622.00
             560.00,622.00 553.00,622.00 553.00,622.00
             553.00,622.00 553.00,595.00 553.00,595.00
             557.16,595.00 565.46,594.48 568.97,596.31 Z
           M 606.00,595.00
           C 606.00,595.00 606.00,601.00 606.00,601.00
             606.00,601.00 594.00,601.00 594.00,601.00
             594.00,601.00 594.00,605.00 594.00,605.00
             594.00,605.00 605.00,605.00 605.00,605.00
             605.00,605.00 605.00,611.00 605.00,611.00
             605.00,611.00 594.00,611.00 594.00,611.00
             594.00,611.00 594.00,616.00 594.00,616.00
             604.07,616.00 606.41,614.89 607.00,622.00
             607.00,622.00 587.00,622.00 587.00,622.00
             587.00,622.00 587.00,595.00 587.00,595.00
             587.00,595.00 606.00,595.00 606.00,595.00 Z" />
</svg>
