<?xml version="1.0" encoding="UTF-8" standalone="no"?>
<!-- Generator: Adobe Illustrator 16.0.0, SVG Export Plug-In . SVG Version: 6.00 Build 0)  -->

<svg
   xmlns:dc="http://purl.org/dc/elements/1.1/"
   xmlns:cc="http://creativecommons.org/ns#"
   xmlns:rdf="http://www.w3.org/1999/02/22-rdf-syntax-ns#"
   xmlns:svg="http://www.w3.org/2000/svg"
   xmlns="http://www.w3.org/2000/svg"
   xmlns:sodipodi="http://sodipodi.sourceforge.net/DTD/sodipodi-0.dtd"
   xmlns:inkscape="http://www.inkscape.org/namespaces/inkscape"
   version="1.1"
   id="Layer_1"
   x="0px"
   y="0px"
   width="1930.4395"
   height="410.37347"
   viewBox="0 0 1930.4395 410.37347"
   enable-background="new 0 0 2340 1560"
   xml:space="preserve"
   sodipodi:docname="sintodental-offer-new-logo-v2.svg"
   inkscape:version="0.92.1 r15371"
   inkscape:export-filename="/home/zhivka/workspace/sintodental/dentist/img/sintodental-offer-new-logo.svg.png"
   inkscape:export-xdpi="96"
   inkscape:export-ydpi="96"><metadata
     id="metadata3876"><rdf:RDF><cc:Work
         rdf:about=""><dc:format>image/svg+xml</dc:format><dc:type
           rdf:resource="http://purl.org/dc/dcmitype/StillImage" /><dc:title></dc:title></cc:Work></rdf:RDF></metadata><defs
     id="defs3874" /><sodipodi:namedview
     pagecolor="#ffffff"
     bordercolor="#666666"
     borderopacity="1"
     objecttolerance="10"
     gridtolerance="10"
     guidetolerance="10"
     inkscape:pageopacity="0"
     inkscape:pageshadow="2"
     inkscape:window-width="1920"
     inkscape:window-height="1016"
     id="namedview3872"
     showgrid="false"
     inkscape:zoom="0.37304415"
     inkscape:cx="69.906938"
     inkscape:cy="186.27936"
     inkscape:window-x="0"
     inkscape:window-y="27"
     inkscape:window-maximized="1"
     inkscape:current-layer="Layer_1" /><linearGradient
     id="SVGID_1_"
     gradientUnits="userSpaceOnUse"
     x1="1452.8359"
     y1="959.99799"
     x2="986.80847"
     y2="493.9707"
     gradientTransform="translate(-954.116,-494.425)"><stop
       offset="0"
       style="stop-color:#138C39"
       id="stop3864" /><stop
       offset="1"
       style="stop-color:#96BF1F"
       id="stop3866" /></linearGradient><path
     d="m 322.623,0 c -22.981,0 -51.3,15.624 -71.988,27.037 -3.773,2.083 -13.366,7.751 -13.104,9.154 0.274,1.502 11.502,5.383 19.385,7.861 38.78,12.208 86.781,9.057 83.008,10.904 C 273.274,87.565 207.361,42.676 171.716,21.829 149.719,8.964 126.815,0 109.14,0 40.825,0 0,59.703 0,117.428 0,133.66 0.088,150.347 5.958,173.179 23.292,240.557 86.197,121.622 166.432,139.866 52.764,97.063 32.02,192.575 27.038,130.744 c -8.815,-109.332 142.507,-22.3 198.334,5.613 -77.881,-0.701 -94.337,147.179 -204.886,95.43 5.225,14.577 21.764,61.748 28.063,76.22 13.271,30.502 27.854,57.752 41.042,76.732 12.834,18.474 20.443,26.687 23.101,25.527 0.609,-0.269 1.162,-1.473 1.546,-2.532 5.471,-15.136 10.542,-33.039 15.92,-51.99 8.502,-30.051 17.3,-61.106 28.982,-85.435 15.229,-31.757 33.483,-47.189 55.817,-47.189 h 1.842 c 23.111,0 41.772,15.553 57.057,47.551 11.729,24.554 20.227,55.675 28.439,85.775 5.13,18.804 8.902,33.484 14.176,48.277 0.34,0.95 1.732,4.436 2.653,5.017 3.268,2.101 10.799,-8.354 22.618,-25.594 13.179,-19.215 27.82701,-46.789 41.20201,-77.624 30.106,-69.379 48.822,-141.839 48.822,-189.094 C 431.76601,59.703 390.94801,0 322.623,0 Z"
     id="path3869"
     style="fill:url(#SVGID_1_)"
     inkscape:connector-curvature="0" /><text
     xml:space="preserve"
     style="font-style:normal;font-weight:normal;font-size:40px;line-height:1.25;font-family:sans-serif;letter-spacing:0px;word-spacing:0px;fill:#222222;fill-opacity:1;stroke:none;"
     x="480.94727"
     y="261.94901"
     id="text4597"><tspan
       sodipodi:role="line"
       x="480.94727"
       y="261.94901"
       id="tspan4595"><tspan
         x="480.94727"
         y="261.94901"
         style="font-style:normal;font-variant:normal;font-weight:bold;font-stretch:semi-condensed;font-size:206.66667175px;font-family:'DejaVu Sans';-inkscape-font-specification:'DejaVu Sans Bold Semi-Condensed';fill:#222222;fill-opacity:1;"
         id="tspan4593">SINTODENTAL</tspan></tspan></text>
</svg>